<?xml version="1.0" encoding="UTF-8" standalone="no"?>
<!DOCTYPE svg PUBLIC "-//W3C//DTD SVG 1.1//EN" "http://www.w3.org/Graphics/SVG/1.1/DTD/svg11.dtd">
<svg width="100%" height="100%" viewBox="0 0 469 141" version="1.1" xmlns="http://www.w3.org/2000/svg" xmlns:xlink="http://www.w3.org/1999/xlink" xml:space="preserve" xmlns:serif="http://www.serif.com/" style="fill-rule:evenodd;clip-rule:evenodd;stroke-linejoin:round;stroke-miterlimit:2;">
    <path id="circle_logo" d="M244.432,112.246C244.432,120.872 242.167,127.734 237.635,132.832C233.104,137.929 226.656,140.478 218.291,140.478L212.279,140.478L212.279,136.949L200.777,136.949C199.731,139.04 198.032,140.086 195.679,140.086C194.111,140.086 192.76,139.52 191.627,138.387C190.494,137.254 189.928,135.903 189.928,134.335C189.928,132.766 190.494,131.416 191.627,130.283C192.76,129.15 194.111,128.584 195.679,128.584C198.555,128.584 200.385,129.978 201.169,132.766L212.279,132.766L212.279,128.976L218.291,128.976C221.777,128.976 224.609,127.538 226.787,124.663C228.965,121.787 230.055,118.127 230.055,113.683L230.055,107.41C226.133,111.331 221.384,113.291 215.808,113.291C210.318,113.291 205.613,111.353 201.692,107.475C197.77,103.597 195.81,98.87 195.81,93.293C195.81,87.804 197.77,83.12 201.692,79.243C205.613,75.365 210.318,73.426 215.808,73.426C221.384,73.426 226.133,75.387 230.055,79.308L237.243,73.426L244.432,73.426L244.432,112.246ZM312.791,140.086L305.602,140.086L298.413,134.073C294.492,138.082 289.743,140.086 284.167,140.086C278.59,140.086 273.863,138.125 269.985,134.204C266.107,130.283 264.169,125.578 264.169,120.088C264.169,114.598 266.107,109.893 269.985,105.972C273.863,102.051 278.59,100.09 284.167,100.09C289.743,100.09 294.492,102.094 298.413,106.103L298.413,99.829C298.413,95.385 297.324,91.703 295.146,88.784C292.967,85.865 290.135,84.405 286.65,84.405L280.507,84.405L280.507,80.746L269.528,80.746C268.743,83.534 266.913,84.928 264.038,84.928C262.469,84.928 261.119,84.362 259.986,83.229C258.853,82.096 258.287,80.746 258.287,79.177C258.287,77.522 258.853,76.149 259.986,75.06C261.119,73.971 262.469,73.426 264.038,73.426C266.391,73.426 268.09,74.472 269.135,76.563L280.507,76.563L280.507,72.903L286.65,72.903C295.015,72.903 301.463,75.452 305.994,80.55C310.525,85.647 312.791,92.553 312.791,101.266L312.791,140.086ZM54.518,52.513C54.518,54.082 53.951,55.432 52.818,56.565C51.686,57.698 50.335,58.264 48.766,58.264C45.891,58.264 44.061,56.87 43.277,54.082L32.298,54.082L32.298,57.872L14.391,57.872L14.391,85.582L50.988,85.582L50.988,89.764L14.391,89.764L14.391,113.422L9.816,113.422L9.816,129.107C11.995,130.152 13.084,131.895 13.084,134.335C13.084,135.903 12.539,137.254 11.45,138.387C10.361,139.52 8.989,140.086 7.333,140.086C5.764,140.086 4.414,139.52 3.281,138.387C2.148,137.254 1.582,135.903 1.582,134.335C1.582,131.546 2.933,129.717 5.634,128.845L5.634,113.422L0.013,113.422L0.144,46.37L32.298,46.37L32.298,49.899L43.669,49.899C44.715,47.808 46.414,46.762 48.766,46.762C50.335,46.762 51.686,47.329 52.818,48.462C53.951,49.594 54.518,50.945 54.518,52.513ZM175.289,140.086L168.1,140.086L160.912,134.073C156.99,138.082 152.241,140.086 146.665,140.086C141.088,140.086 136.361,138.125 132.483,134.204C128.606,130.283 126.667,125.578 126.667,120.088C126.667,114.598 128.606,109.893 132.483,105.972C136.361,102.051 141.088,100.09 146.665,100.09C152.241,100.09 156.99,102.094 160.912,106.103L160.912,99.829C160.912,95.385 159.822,91.703 157.644,88.784C155.465,85.865 152.634,84.405 149.148,84.405L143.005,84.405L143.005,80.746L132.026,80.746C131.241,83.534 129.412,84.928 126.536,84.928C124.968,84.928 123.617,84.362 122.484,83.229C121.351,82.096 120.785,80.746 120.785,79.177C120.785,77.522 121.351,76.149 122.484,75.06C123.617,73.971 124.968,73.426 126.536,73.426C128.889,73.426 130.588,74.472 131.634,76.563L143.005,76.563L143.005,72.903L149.148,72.903C157.513,72.903 163.961,75.452 168.492,80.55C173.024,85.647 175.289,92.553 175.289,101.266L175.289,140.086ZM400.886,140.086L386.639,140.086L386.77,86.105L391.476,86.105L391.476,68.198C389.384,67.152 388.339,65.453 388.339,63.101C388.339,61.532 388.905,60.181 390.038,59.049C391.171,57.916 392.521,57.35 394.09,57.35C395.658,57.35 397.009,57.916 398.141,59.049C399.274,60.181 399.841,61.532 399.841,63.101C399.841,65.976 398.446,67.806 395.658,68.59L395.658,86.105L400.886,86.105L400.886,140.086ZM115.165,79.439L109.414,89.503C106.015,86.889 102.268,85.582 98.173,85.582C92.771,85.582 88.348,87.085 84.906,90.091C81.465,93.097 79.744,96.474 79.744,100.221L79.744,113.422L75.169,113.422L75.169,129.107C77.347,130.152 78.437,131.895 78.437,134.335C78.437,135.903 77.892,137.254 76.803,138.387C75.714,139.52 74.341,140.086 72.686,140.086C71.117,140.086 69.766,139.52 68.634,138.387C67.501,137.254 66.935,135.903 66.935,134.335C66.935,131.546 68.285,129.717 70.986,128.845L70.986,113.422L65.366,113.422L65.366,73.688L72.555,73.688L79.744,79.047C85.408,75.735 91.551,74.08 98.173,74.08C105.667,74.08 111.331,75.866 115.165,79.439ZM468.461,140.086L461.272,140.086L454.083,134.073C450.162,138.082 445.413,140.086 439.836,140.086C434.26,140.086 429.533,138.125 425.655,134.204C421.777,130.283 419.839,125.578 419.839,120.088C419.839,114.598 421.777,109.893 425.655,105.972C429.533,102.051 434.26,100.09 439.836,100.09C445.413,100.09 450.162,102.094 454.083,106.103L454.083,99.829C454.083,95.385 452.994,91.703 450.816,88.784C448.637,85.865 445.805,84.405 442.32,84.405L436.177,84.405L436.177,80.746L425.197,80.746C424.413,83.534 422.583,84.928 419.708,84.928C418.139,84.928 416.789,84.362 415.656,83.229C414.523,82.096 413.957,80.746 413.957,79.177C413.957,77.522 414.523,76.149 415.656,75.06C416.789,73.971 418.139,73.426 419.708,73.426C422.061,73.426 423.76,74.472 424.805,76.563L436.177,76.563L436.177,72.903L442.32,72.903C450.685,72.903 457.133,75.452 461.664,80.55C466.195,85.647 468.461,92.553 468.461,101.266L468.461,140.086ZM378.797,79.439L373.046,89.503C369.648,86.889 365.901,85.582 361.805,85.582C356.403,85.582 351.981,87.085 348.539,90.091C345.097,93.097 343.376,96.474 343.376,100.221L343.376,113.422L338.801,113.422L338.801,129.107C340.98,130.152 342.069,131.895 342.069,134.335C342.069,135.903 341.524,137.254 340.435,138.387C339.346,139.52 337.974,140.086 336.318,140.086C334.749,140.086 333.399,139.52 332.266,138.387C331.133,137.254 330.567,135.903 330.567,134.335C330.567,131.546 331.918,129.717 334.619,128.845L334.619,113.422L328.998,113.422L328.998,73.688L336.187,73.688L343.376,79.047C349.04,75.735 355.183,74.08 361.805,74.08C369.299,74.08 374.963,75.866 378.797,79.439ZM161.696,119.957C161.696,115.949 160.28,112.529 157.448,109.697C154.616,106.865 151.196,105.449 147.187,105.449C143.179,105.449 139.759,106.865 136.927,109.697C134.095,112.529 132.679,115.949 132.679,119.957C132.679,123.966 134.095,127.386 136.927,130.218C139.759,133.05 143.179,134.466 147.187,134.466C151.196,134.466 154.616,133.05 157.448,130.218C160.28,127.386 161.696,123.966 161.696,119.957ZM299.198,119.957C299.198,115.949 297.782,112.529 294.95,109.697C292.118,106.865 288.698,105.449 284.689,105.449C280.681,105.449 277.261,106.865 274.429,109.697C271.597,112.529 270.181,115.949 270.181,119.957C270.181,123.966 271.597,127.386 274.429,130.218C277.261,133.05 280.681,134.466 284.689,134.466C288.698,134.466 292.118,133.05 294.95,130.218C297.782,127.386 299.198,123.966 299.198,119.957ZM454.868,119.957C454.868,115.949 453.452,112.529 450.62,109.697C447.788,106.865 444.368,105.449 440.359,105.449C436.351,105.449 432.931,106.865 430.099,109.697C427.267,112.529 425.851,115.949 425.851,119.957C425.851,123.966 427.267,127.386 430.099,130.218C432.931,133.05 436.351,134.466 440.359,134.466C444.368,134.466 447.788,133.05 450.62,130.218C453.452,127.386 454.868,123.966 454.868,119.957ZM230.97,93.555C230.97,89.547 229.554,86.105 226.722,83.229C223.89,80.354 220.47,78.916 216.461,78.916C212.366,78.916 208.902,80.354 206.07,83.229C203.238,86.105 201.822,89.547 201.822,93.555C201.822,97.563 203.238,100.983 206.07,103.815C208.902,106.647 212.366,108.063 216.461,108.063C220.47,108.063 223.89,106.647 226.722,103.815C229.554,100.983 230.97,97.563 230.97,93.555ZM381.666,43.334C381.666,19.77 400.769,0.668 424.333,0.668C447.897,0.668 467,19.77 467,43.334L381.666,43.334Z" />
</svg>
