<?xml version="1.0" encoding="UTF-8" standalone="no"?>
<!DOCTYPE svg PUBLIC "-//W3C//DTD SVG 1.1//EN" "http://www.w3.org/Graphics/SVG/1.1/DTD/svg11.dtd">
<svg width="100%" height="100%" viewBox="0 0 1424 364" version="1.1" xmlns="http://www.w3.org/2000/svg" xmlns:xlink="http://www.w3.org/1999/xlink" xml:space="preserve" xmlns:serif="http://www.serif.com/" style="fill-rule:evenodd;clip-rule:evenodd;stroke-linejoin:round;stroke-miterlimit:2;">
    <g id="logo" transform="matrix(1,0,0,1,-239,-349)">
        <path d="M1420.73,673.912C1420.73,673.912 1425.33,673.175 1430.7,674.783C1437.48,676.814 1445.35,684.939 1442.73,697.113C1439.91,710.195 1428.19,713.929 1419.08,711.725C1413.36,710.339 1410.97,707.074 1410.97,707.074C1410.97,707.074 1421.14,705.165 1424.33,693.908C1427.61,682.307 1420.73,673.912 1420.73,673.912ZM629.081,687.427L633.08,687.427L624.754,706.622L623.585,706.622L617.987,693.476L612.491,706.622L611.281,706.622L602.872,687.427L606.871,687.427L611.814,698.87L616.613,687.427L619.381,687.427L624.159,698.87L629.081,687.427ZM841.48,687.386C844.351,687.386 846.737,688.312 848.637,690.164C850.538,692.017 851.488,694.345 851.488,697.147C851.488,699.868 850.524,702.127 848.596,703.925C846.669,705.723 844.242,706.622 841.316,706.622C838.486,706.622 836.121,705.709 834.22,703.884C832.32,702.059 831.37,699.779 831.37,697.045C831.37,694.283 832.33,691.983 834.251,690.144C836.172,688.305 838.582,687.386 841.48,687.386ZM1276.94,704.94L1276.94,700.921C1277.99,701.659 1279.07,702.257 1280.17,702.715C1281.27,703.173 1282.2,703.402 1282.95,703.402C1283.73,703.402 1284.4,703.211 1284.96,702.828C1285.52,702.445 1285.8,701.987 1285.8,701.454C1285.8,700.907 1285.62,700.452 1285.26,700.09C1284.89,699.728 1284.11,699.205 1282.91,698.521C1280.5,697.181 1278.93,696.036 1278.18,695.086C1277.44,694.136 1277.07,693.1 1277.07,691.979C1277.07,690.53 1277.63,689.347 1278.76,688.431C1279.88,687.515 1281.34,687.057 1283.12,687.057C1284.96,687.057 1286.85,687.577 1288.8,688.616L1288.8,692.307C1286.58,690.968 1284.77,690.298 1283.36,690.298C1282.64,690.298 1282.05,690.451 1281.61,690.759C1281.16,691.067 1280.94,691.473 1280.94,691.979C1280.94,692.417 1281.14,692.834 1281.55,693.23C1281.95,693.627 1282.66,694.105 1283.67,694.666L1285,695.425C1288.15,697.202 1289.72,699.171 1289.72,701.331C1289.72,702.876 1289.11,704.144 1287.9,705.135C1286.69,706.126 1285.14,706.622 1283.24,706.622C1282.12,706.622 1281.12,706.502 1280.24,706.263C1279.37,706.024 1278.27,705.583 1276.94,704.94ZM734.307,701.885L734.307,705.576C732.434,706.273 730.602,706.622 728.811,706.622C725.857,706.622 723.502,705.747 721.746,703.997C719.989,702.247 719.11,699.902 719.11,696.963C719.11,693.996 719.965,691.603 721.674,689.785C723.383,687.967 725.632,687.057 728.421,687.057C729.392,687.057 730.263,687.15 731.036,687.334C731.808,687.519 732.762,687.864 733.896,688.37L733.896,692.348C732.01,691.145 730.26,690.544 728.646,690.544C726.965,690.544 725.584,691.135 724.504,692.318C723.424,693.5 722.884,695.008 722.884,696.84C722.884,698.767 723.468,700.299 724.637,701.433C725.806,702.568 727.382,703.136 729.364,703.136C730.8,703.136 732.447,702.719 734.307,701.885ZM1171.63,694.953L1171.63,702.971C1171.63,703.614 1171.85,703.935 1172.29,703.935C1172.74,703.935 1173.45,703.6 1174.4,702.93L1174.4,705.207C1173.56,705.754 1172.88,706.126 1172.36,706.325C1171.85,706.523 1171.31,706.622 1170.75,706.622C1169.15,706.622 1168.21,705.993 1167.92,704.735C1166.34,705.966 1164.65,706.581 1162.86,706.581C1161.55,706.581 1160.45,706.147 1159.58,705.279C1158.7,704.41 1158.26,703.32 1158.26,702.008C1158.26,700.818 1158.69,699.755 1159.55,698.819C1160.4,697.882 1161.61,697.14 1163.18,696.594L1167.96,694.953L1167.96,693.948C1167.96,691.679 1166.83,690.544 1164.56,690.544C1162.52,690.544 1160.54,691.596 1158.61,693.702L1158.61,689.621C1160.06,687.912 1162.15,687.057 1164.87,687.057C1166.9,687.057 1168.54,687.591 1169.77,688.657C1170.18,688.999 1170.55,689.453 1170.88,690.021C1171.2,690.588 1171.41,691.156 1171.5,691.723C1171.59,692.29 1171.63,693.367 1171.63,694.953ZM1251.38,694.953L1251.38,702.971C1251.38,703.614 1251.6,703.935 1252.04,703.935C1252.49,703.935 1253.19,703.6 1254.15,702.93L1254.15,705.207C1253.3,705.754 1252.62,706.126 1252.11,706.325C1251.6,706.523 1251.06,706.622 1250.5,706.622C1248.9,706.622 1247.96,705.993 1247.67,704.735C1246.08,705.966 1244.4,706.581 1242.61,706.581C1241.29,706.581 1240.2,706.147 1239.32,705.279C1238.45,704.41 1238.01,703.32 1238.01,702.008C1238.01,700.818 1238.44,699.755 1239.29,698.819C1240.15,697.882 1241.36,697.14 1242.93,696.594L1247.71,694.953L1247.71,693.948C1247.71,691.679 1246.58,690.544 1244.31,690.544C1242.27,690.544 1240.29,691.596 1238.36,693.702L1238.36,689.621C1239.81,687.912 1241.89,687.057 1244.62,687.057C1246.65,687.057 1248.29,687.591 1249.52,688.657C1249.93,688.999 1250.3,689.453 1250.62,690.021C1250.95,690.588 1251.16,691.156 1251.25,691.723C1251.34,692.29 1251.38,693.367 1251.38,694.953ZM683.112,690.421L690.126,683.53L690.126,687.427L696.094,687.427L696.094,690.79L690.126,690.79L690.126,700.039C690.126,702.199 691.022,703.279 692.813,703.279C694.152,703.279 695.567,702.828 697.058,701.926L697.058,705.412C695.622,706.219 694.057,706.622 692.361,706.622C690.652,706.622 689.231,706.123 688.096,705.125C687.74,704.824 687.446,704.486 687.214,704.11C686.982,703.734 686.787,703.242 686.629,702.633C686.472,702.025 686.394,700.866 686.394,699.157L686.394,690.79L683.112,690.79L683.112,690.421ZM936.39,690.421L943.404,683.53L943.404,687.427L949.371,687.427L949.371,690.79L943.404,690.79L943.404,700.039C943.404,702.199 944.299,703.279 946.09,703.279C947.43,703.279 948.845,702.828 950.335,701.926L950.335,705.412C948.9,706.219 947.334,706.622 945.639,706.622C943.93,706.622 942.508,706.123 941.373,705.125C941.018,704.824 940.724,704.486 940.491,704.11C940.259,703.734 940.064,703.242 939.907,702.633C939.75,702.025 939.671,700.866 939.671,699.157L939.671,690.79L936.39,690.79L936.39,690.421ZM1030.92,697.188L1017.65,697.188C1017.75,698.993 1018.36,700.429 1019.47,701.495C1020.59,702.561 1022.02,703.095 1023.79,703.095C1026.25,703.095 1028.52,702.329 1030.6,700.798L1030.6,704.448C1029.45,705.214 1028.31,705.761 1027.18,706.089C1026.05,706.417 1024.73,706.581 1023.21,706.581C1021.13,706.581 1019.45,706.15 1018.17,705.289C1016.88,704.428 1015.85,703.269 1015.08,701.813C1014.31,700.357 1013.92,698.672 1013.92,696.758C1013.92,693.887 1014.74,691.552 1016.36,689.754C1017.99,687.956 1020.1,687.057 1022.7,687.057C1025.2,687.057 1027.2,687.932 1028.69,689.682C1030.18,691.432 1030.92,693.777 1030.92,696.717L1030.92,697.188ZM548.985,697.188L535.716,697.188C535.812,698.993 536.417,700.429 537.531,701.495C538.646,702.561 540.084,703.095 541.848,703.095C544.309,703.095 546.579,702.329 548.657,700.798L548.657,704.448C547.508,705.214 546.37,705.761 545.242,706.089C544.114,706.417 542.792,706.581 541.274,706.581C539.196,706.581 537.514,706.15 536.229,705.289C534.944,704.428 533.915,703.269 533.143,701.813C532.37,700.357 531.984,698.672 531.984,696.758C531.984,693.887 532.797,691.552 534.424,689.754C536.051,687.956 538.164,687.057 540.761,687.057C543.263,687.057 545.259,687.932 546.75,689.682C548.24,691.432 548.985,693.777 548.985,696.717L548.985,697.188ZM443.787,677.603L467.719,677.603L467.719,681.254L457.732,681.254L457.732,706.294L453.61,706.294L453.61,681.254L443.787,681.254L443.787,677.603ZM1201.85,687.427L1201.85,689.826C1203.52,687.98 1205.41,687.057 1207.53,687.057C1208.71,687.057 1209.8,687.362 1210.81,687.97C1211.82,688.578 1212.59,689.412 1213.12,690.472C1213.64,691.532 1213.91,693.21 1213.91,695.507L1213.91,706.294L1210.17,706.294L1210.17,695.548C1210.17,693.62 1209.88,692.242 1209.29,691.415C1208.71,690.588 1207.72,690.175 1206.34,690.175C1204.58,690.175 1203.08,691.056 1201.85,692.82L1201.85,706.294L1198.04,706.294L1198.04,687.427L1201.85,687.427ZM758.882,677.644L762.614,677.644L762.614,689.908C764.173,688.008 766.107,687.057 768.418,687.057C769.676,687.057 770.804,687.372 771.802,688.001C772.8,688.63 773.541,689.498 774.027,690.605C774.512,691.713 774.755,693.36 774.755,695.548L774.755,706.294L771.022,706.294L771.022,694.625C771.022,693.244 770.684,692.133 770.007,691.292C769.33,690.451 768.438,690.031 767.331,690.031C766.511,690.031 765.738,690.243 765.014,690.667C764.289,691.091 763.489,691.795 762.614,692.779L762.614,706.294L758.882,706.294L758.882,677.644ZM1118.29,677.644L1122.02,677.644L1122.02,689.908C1123.58,688.008 1125.51,687.057 1127.82,687.057C1129.08,687.057 1130.21,687.372 1131.21,688.001C1132.2,688.63 1132.95,689.498 1133.43,690.605C1133.92,691.713 1134.16,693.36 1134.16,695.548L1134.16,706.294L1130.43,706.294L1130.43,694.625C1130.43,693.244 1130.09,692.133 1129.41,691.292C1128.74,690.451 1127.84,690.031 1126.74,690.031C1125.92,690.031 1125.14,690.243 1124.42,690.667C1123.69,691.091 1122.89,691.795 1122.02,692.779L1122.02,706.294L1118.29,706.294L1118.29,677.644ZM876.473,687.427L876.473,686.299C876.473,683.263 877.119,681.001 878.411,679.511C879.703,678.02 881.251,677.275 883.056,677.275C883.835,677.275 884.758,677.398 885.825,677.644L885.825,681.295C885.223,681.076 884.649,680.967 884.102,680.967C882.639,680.967 881.624,681.356 881.057,682.136C880.489,682.915 880.206,684.303 880.206,686.299L880.206,687.427L883.569,687.427L883.569,690.79L880.206,690.79L880.206,706.294L876.473,706.294L876.473,690.79L873.766,690.79L873.766,687.427L876.473,687.427ZM1314.36,677.644L1318.09,677.644L1318.09,689.908C1319.65,688.008 1321.58,687.057 1323.89,687.057C1325.15,687.057 1326.28,687.372 1327.28,688.001C1328.27,688.63 1329.01,689.498 1329.5,690.605C1329.99,691.713 1330.23,693.36 1330.23,695.548L1330.23,706.294L1326.5,706.294L1326.5,694.625C1326.5,693.244 1326.16,692.133 1325.48,691.292C1324.8,690.451 1323.91,690.031 1322.8,690.031C1321.98,690.031 1321.21,690.243 1320.49,690.667C1319.76,691.091 1318.96,691.795 1318.09,692.779L1318.09,706.294L1314.36,706.294L1314.36,677.644ZM973.352,677.644L977.084,677.644L977.084,689.908C978.643,688.008 980.577,687.057 982.888,687.057C984.146,687.057 985.274,687.372 986.272,688.001C987.27,688.63 988.011,689.498 988.497,690.605C988.982,691.713 989.225,693.36 989.225,695.548L989.225,706.294L985.492,706.294L985.492,694.625C985.492,693.244 985.154,692.133 984.477,691.292C983.8,690.451 982.908,690.031 981.801,690.031C980.981,690.031 980.208,690.243 979.484,690.667C978.759,691.091 977.959,691.795 977.084,692.779L977.084,706.294L973.352,706.294L973.352,677.644ZM1355.93,687.427L1359.66,687.427L1359.66,706.294L1355.93,706.294L1355.93,687.427ZM656.22,687.427L659.952,687.427L659.952,706.294L656.22,706.294L656.22,687.427ZM1088.01,677.644L1092.11,677.644L1092.11,706.294L1088.01,706.294L1088.01,677.644ZM491.413,677.644L495.145,677.644L495.145,689.908C496.704,688.008 498.638,687.057 500.949,687.057C502.207,687.057 503.335,687.372 504.333,688.001C505.331,688.63 506.072,689.498 506.558,690.605C507.043,691.713 507.286,693.36 507.286,695.548L507.286,706.294L503.553,706.294L503.553,694.625C503.553,693.244 503.215,692.133 502.538,691.292C501.861,690.451 500.969,690.031 499.862,690.031C499.042,690.031 498.269,690.243 497.545,690.667C496.82,691.091 496.02,691.795 495.145,692.779L495.145,706.294L491.413,706.294L491.413,677.644ZM1167.96,702.561L1167.96,696.963L1165.46,697.927C1164.19,698.432 1163.29,698.942 1162.77,699.454C1162.24,699.967 1161.98,700.606 1161.98,701.372C1161.98,702.151 1162.23,702.787 1162.72,703.279C1163.22,703.771 1163.87,704.017 1164.66,704.017C1165.85,704.017 1166.95,703.532 1167.96,702.561ZM1247.71,702.561L1247.71,696.963L1245.21,697.927C1243.94,698.432 1243.04,698.942 1242.51,699.454C1241.99,699.967 1241.72,700.606 1241.72,701.372C1241.72,702.151 1241.97,702.787 1242.47,703.279C1242.97,703.771 1243.62,704.017 1244.41,704.017C1245.6,704.017 1246.7,703.532 1247.71,702.561ZM841.275,690.749C839.484,690.749 838.014,691.337 836.866,692.513C835.717,693.688 835.143,695.185 835.143,697.004C835.143,698.808 835.731,700.282 836.907,701.423C838.083,702.565 839.593,703.136 841.439,703.136C843.271,703.136 844.772,702.558 845.941,701.403C847.109,700.247 847.694,698.767 847.694,696.963C847.694,695.172 847.086,693.688 845.869,692.513C844.652,691.337 843.121,690.749 841.275,690.749ZM1017.74,694.953L1027.23,694.953C1027.14,693.463 1026.69,692.314 1025.9,691.508C1025.11,690.701 1024.04,690.298 1022.7,690.298C1021.36,690.298 1020.26,690.701 1019.41,691.508C1018.55,692.314 1018,693.463 1017.74,694.953ZM535.798,694.953L545.293,694.953C545.198,693.463 544.753,692.314 543.96,691.508C543.167,690.701 542.101,690.298 540.761,690.298C539.421,690.298 538.324,690.701 537.47,691.508C536.615,692.314 536.058,693.463 535.798,694.953ZM658.066,679.49C658.681,679.49 659.207,679.702 659.645,680.126C660.082,680.55 660.301,681.069 660.301,681.684C660.301,682.286 660.082,682.805 659.645,683.243C659.207,683.68 658.681,683.899 658.066,683.899C657.491,683.899 656.986,683.677 656.548,683.233C656.111,682.788 655.892,682.272 655.892,681.684C655.892,681.11 656.111,680.601 656.548,680.157C656.986,679.712 657.491,679.49 658.066,679.49ZM1357.78,679.49C1358.39,679.49 1358.92,679.702 1359.36,680.126C1359.79,680.55 1360.01,681.069 1360.01,681.684C1360.01,682.286 1359.79,682.805 1359.36,683.243C1358.92,683.68 1358.39,683.899 1357.78,683.899C1357.2,683.899 1356.7,683.677 1356.26,683.233C1355.82,682.788 1355.6,682.272 1355.6,681.684C1355.6,681.11 1355.82,680.601 1356.26,680.157C1356.7,679.712 1357.2,679.49 1357.78,679.49ZM1501.27,527.391C1500.91,528.116 1495.87,537.56 1495.43,538.376C1492.42,543.956 1488.96,550.607 1484.86,558.328C1484.85,558.339 1484.85,558.351 1484.84,558.362C1484.84,558.362 1483.73,560.272 1481.33,561.166C1479.72,561.766 1477.54,561.907 1474.72,560.706C1472.32,559.681 1471.28,558.313 1470.9,557.039C1470.36,555.19 1471.2,553.541 1471.25,553.447C1471.26,553.435 1471.28,553.392 1471.28,553.392C1484.32,531.127 1493.17,509.725 1507.1,479.058C1508.74,475.463 1507.73,472.207 1506.15,470.417C1505.16,469.301 1503.44,468.042 1501.37,467.846L1447.47,467.101L1444.29,461.072L1508.76,461.974C1512.42,461.974 1515.33,459.392 1516.37,456.744C1524.81,435.277 1530.14,419.953 1534.91,403.008C1545.57,404.912 1552.5,406.95 1555.7,409.12C1557.07,410.05 1557.76,411.005 1557.76,411.985C1557.76,412.637 1557.12,413.445 1556.17,414.307C1553.96,416.319 1550.08,418.632 1548.75,419.983C1547.15,421.613 1544.06,425.13 1542.87,428.595C1539.43,438.571 1537.63,443.244 1534.16,452.501C1533.83,453.361 1533.35,456.494 1535.12,459.106C1536.89,461.718 1539.98,462.395 1540.9,462.408L1622.94,463.543C1623.1,463.545 1623.26,463.534 1623.41,463.509C1623.94,463.425 1625.44,463.102 1626.75,462.208C1630.04,459.95 1643.24,446.834 1644.85,445.234L1645,445.077C1652.24,452.523 1658.02,458.717 1660.82,462.892C1662.87,465.945 1661.94,469.766 1661.87,470.066C1661.87,470.066 1642.96,469.457 1617.78,469.457C1615.05,469.457 1611.93,471.53 1611.17,474.862C1603.87,506.952 1593.31,531.234 1577.96,555.663C1577.74,556.01 1575.39,559.977 1572.89,563.591C1570.54,566.986 1568.04,570.04 1567.74,570.388C1543.92,598.095 1498.19,622.362 1427.22,625.195C1427.16,625.195 1427.11,625.197 1427.05,625.2C1426.58,625.231 1424.33,625.281 1423.91,622.851C1423.53,620.685 1425.7,620.149 1426.17,620.06L1426.22,620.054C1489.96,614.164 1529.76,589.673 1550.09,568.686C1550.68,568.073 1552.85,566.168 1552.19,562.798C1551.53,559.428 1548.87,558.191 1548.1,557.822C1533.38,550.755 1523.66,546.444 1507.91,540.41C1508.94,538.562 1510.21,536.262 1511.46,533.888C1527.38,538.997 1537.82,542.619 1555.8,549.84C1559.71,551.411 1564.33,550.333 1566.45,546.691C1579.58,524.217 1585.47,507.042 1593.34,478.16C1593.56,477.357 1593.91,474.171 1591.94,471.651C1589.96,469.132 1587.68,469.052 1586.85,469.041C1586.85,469.041 1551.73,468.291 1533.43,468.291C1528.83,468.291 1526.62,470.393 1525.61,472.809C1517.99,491.119 1510.97,507.809 1501.27,527.391ZM370.155,482.163C375.262,484.958 379.043,487.929 379.894,492.467C381.089,497.247 378.101,499.638 376.906,504.418C375.711,509.199 375.711,521.749 375.412,531.908C374.814,541.469 374.814,555.213 375.113,567.763C375.113,580.312 376.01,595.252 376.01,606.008C376.308,616.765 373.022,623.637 365.253,623.338C358.082,622.741 354.795,611.387 355.692,606.008C356.588,600.63 358.082,588.678 358.381,576.727C358.68,565.074 359.277,550.134 359.875,536.987C360.174,524.139 360.39,515.959 360.174,507.406C360.05,502.526 360.151,498.479 358.505,492.809C361.532,490.127 365.963,486.118 370.155,482.163ZM1072.7,507.038C1072.69,506.733 1072.67,506.658 1072.67,506.658C1070.69,507.005 1068.73,507.525 1066.79,508.222L1066.78,508.398C1066.47,514.588 1065.81,519.063 1064.72,526.535L1064.72,526.536C1062.72,540.975 1058.14,552.525 1051.7,562.52L1051.7,562.521C1045.28,572.707 1037.97,578.025 1029.34,580.682L1029.34,580.683C1020.57,583.531 1013.11,582.039 1010.04,574.593C1007.17,566.836 1007.17,553.101 1011.83,540.916L1011.83,540.914C1016.27,528.704 1026.48,516.721 1038.25,508.287C1046.46,502.512 1057.21,497.824 1067.22,495.208C1068.32,494.923 1070.11,494.543 1071.92,494.347C1075.92,493.915 1080.66,493.193 1087.21,493.669C1100.15,494.612 1107.27,496.155 1116.42,502.549C1124.62,508.283 1130.08,516.467 1134.09,527.798C1138.19,539.384 1138.43,556.294 1135.85,567.402C1132.42,582.166 1125,591.902 1119.58,596.187C1111.08,602.909 1104.85,606.158 1096.26,609.035C1090.15,611.079 1083.27,612.364 1081.59,612.691C1078.49,613.29 1073.05,614.095 1070.58,614.269C1069.45,614.348 1068.5,614.596 1067.91,615.027C1067.48,615.345 1067.24,615.759 1067.23,616.275C1067.13,616.81 1067.34,617.254 1067.81,617.597C1068.41,618.044 1069.52,618.313 1070.92,618.371C1077.82,618.654 1084.01,618.248 1090.93,617.254C1106.02,615.084 1116.67,611.21 1127.78,603.85C1138.93,596.467 1146.83,584.222 1149.49,575.649C1152.65,565.449 1153.07,557.109 1152.4,544.822L1152.4,544.82C1151.5,532.521 1148.82,525.814 1144.35,517.542L1144.35,517.54C1139.43,508.817 1132.4,500.285 1121.89,494.024C1112.51,488.212 1098.96,484.891 1085.33,484.667L1085.33,484.667C1071.48,484.444 1056.06,487.795 1043.11,494.496L1043.11,494.497C1030.6,501.197 1022.11,509.011 1014.52,517.943C1006.92,526.661 1002.23,536.72 999.543,549.014C996.634,561.994 997.532,571.394 1002.46,582.36C1007.4,593.379 1015.06,599.436 1025.4,599.436C1035.94,599.436 1046.26,591.835 1054.78,580.627L1054.78,580.626C1063.27,569.234 1068.12,554.077 1070.42,541.316C1072.37,530.532 1072.89,519.476 1072.86,512.002C1072.85,509.645 1072.78,508.808 1072.7,507.038ZM1587.1,563.29C1609.86,573.75 1620.17,579.267 1628.27,585.952C1634.39,591.004 1636.96,595.487 1636.96,600.166C1636.96,602.886 1636.35,604.926 1635.13,606.286C1633.9,607.646 1632.07,608.326 1629.62,608.326C1628.64,608.326 1627.31,607.847 1625.6,606.872C1623.04,605.41 1619.61,602.831 1615.19,599.069C1603.51,589.018 1597.64,584.803 1579.76,574.583C1581.37,572.397 1583.78,569.201 1585.85,565.523C1586.07,565.132 1586.63,564.164 1587.1,563.29ZM1234.15,380.2C1234.15,380.2 1233.77,383.78 1233.15,445.97C1232.51,510.423 1222.13,541.102 1212.13,559.713C1195.36,590.938 1171.03,605.385 1171.03,605.385C1171.03,605.385 1171.02,605.388 1171.02,605.388L1171.01,605.392C1171.01,605.392 1170.2,605.748 1169.28,605.774C1168.65,605.791 1167.97,605.659 1167.44,605.173C1166.15,603.985 1166.94,602.662 1166.94,602.662C1166.96,602.639 1166.97,602.616 1166.99,602.593C1167,602.587 1188.15,589.182 1201.98,554.669C1210.56,533.276 1218.05,504.913 1218.05,446.551C1218.05,446.551 1218.05,373.38 1218.05,373.38C1223.18,375.272 1228.27,377.065 1234.15,380.2ZM1018.01,444.084C1015.39,442.342 1011.05,450.406 1006.98,456.213C1002.33,462.891 988.681,478.927 978.228,490.832C968.065,502.156 954.708,514.061 940.19,525.094C925.382,536.709 914.639,544.548 903.315,551.227C884.151,562.551 872.859,566.33 865.31,566.039C859.212,565.749 853.386,565.589 849.901,562.976C846.127,560.072 843.57,559.656 840.957,561.689C837.472,563.431 840.016,569.81 842.92,575.907C846.114,582.005 851.34,588.393 860.922,588.393C870.794,588.393 879.505,583.747 892.281,576.488C909.412,566.325 930.318,551.517 948.03,534.676C966.032,517.545 972.13,511.447 983.744,498.672C995.649,485.896 1007.26,469.345 1013.07,460.344C1019.46,450.762 1020.91,445.536 1018.01,444.084ZM1347.49,411.417L1360.38,411.417C1362.44,411.417 1364.81,409.393 1364.81,407.025L1364.81,391.963L1366.12,391.992L1368.01,392.05L1369.38,392.106L1369.81,392.126C1377.58,392.495 1382.78,393.37 1385.42,394.806C1386.78,395.546 1387.46,396.434 1387.46,397.48C1387.46,398.002 1387.2,398.551 1386.66,399.118C1385.59,400.245 1383.4,401.441 1379.98,402.671C1378.89,403.064 1378.17,404.099 1378.17,405.259L1378.17,407.73C1378.17,409.695 1379.73,411.417 1381.69,411.417C1394.09,411.417 1394.09,411.417 1394.09,411.417C1394.93,411.417 1395.73,411.03 1396.25,410.368L1406.17,397.77C1411.69,402.706 1419.43,409.53 1421.56,412.869C1421.86,413.34 1421.75,413.972 1421.44,414.627C1420.76,416.064 1419.16,417.605 1418.95,417.805L1418.92,417.827L1418.94,417.805L1392.8,417.805C1391.67,417.805 1389.42,418.819 1388.59,420.873C1387.75,422.927 1388.65,425.494 1389.56,426.166C1404.07,436.895 1411.99,440.529 1431.71,447.701C1429.39,449.298 1426.73,450.711 1424.4,452.342C1422.07,453.973 1420.07,455.822 1419.05,458.29C1403.28,450.28 1396.4,445.818 1386.19,434.925C1385.4,434.077 1383.33,433.336 1381.25,434.08C1379.17,434.824 1378.17,436.796 1378.17,437.958L1378.17,464.843L1364.81,464.843L1364.81,441.64C1364.81,440.569 1363.88,438.794 1362.12,437.978C1360.35,437.162 1358.07,437.495 1357.25,438.177C1351.41,442.995 1346.89,446.307 1339.09,450.99C1338.1,451.58 1337.59,452.718 1337.8,453.845C1338,454.973 1338.89,455.854 1340.02,456.055C1344.72,456.896 1347.96,457.791 1349.68,458.837C1350.67,459.437 1351.16,460.081 1351.16,460.778C1351.16,461.214 1350.88,461.649 1350.3,462.077C1349.05,463.011 1346.4,463.904 1342.39,464.69C1341.86,464.793 1341.38,465.048 1340.99,465.423C1340.12,466.281 1340.11,466.132 1339.31,466.985C1338.53,467.821 1338.32,469.146 1338.84,470.519C1339.38,471.94 1341.21,472.683 1342.36,472.683L1388.17,472.683C1388.95,472.683 1389.69,472.354 1390.21,471.776C1390.21,471.776 1397.52,463.682 1397.52,463.682C1404.64,468.56 1409.33,472.158 1411.51,474.574C1412.44,475.61 1412.91,476.429 1412.91,477.038C1412.91,477.901 1412.34,478.765 1410.63,480.197L1410.56,480.255L1405.99,484.349C1405.41,484.87 1405.07,485.616 1405.07,486.398C1405.07,486.398 1405.07,529.013 1405.07,529.013C1405.07,529.041 1405.07,529.07 1405.07,529.099C1405.07,529.099 1405,530.657 1403.57,531.955C1402.59,532.841 1400.99,533.6 1398.34,533.671C1395.61,533.744 1393.91,533.014 1392.85,532.11C1391.3,530.779 1391.14,529.081 1391.14,529.081C1391.14,529.058 1391.14,529.036 1391.14,529.013L1391.14,526.536C1391.14,525.018 1389.9,523.786 1388.39,523.786C1388.39,523.786 1388.39,523.786 1349.63,523.786C1346.81,523.786 1343.32,526.633 1343.32,530.14L1343.32,560.662C1343.32,564.432 1344.76,569.465 1347.12,570.349C1350.87,571.792 1361.04,572.373 1377.88,572.373C1391.29,572.373 1402.17,571.631 1409.23,570.223C1411.58,569.753 1413.51,569.21 1414.97,568.595C1416.34,568.014 1417.3,567.382 1417.78,566.686C1417.83,566.608 1417.88,566.527 1417.92,566.443C1419.38,563.752 1422.05,555.313 1423.54,534.584C1423.64,534.273 1424.04,533.314 1425.05,533.328C1426.09,533.342 1426.55,534.32 1426.67,534.632L1426.76,534.878C1427.45,536.67 1431.74,547.88 1434.34,556.976C1434.97,559.156 1436.54,564.717 1436.82,568.598C1437.34,575.825 1433.36,580.19 1427.29,581.941L1427.19,581.971C1421.05,583.991 1406.26,584.859 1383.68,584.859C1357.95,584.859 1342.29,583.99 1336.7,581.689L1336.59,581.643C1331.69,579.882 1329.1,571.664 1329.1,563.566C1329.1,563.566 1329.1,563.566 1329.1,530.038C1329.1,527.358 1325.98,523.786 1322.35,523.786C1312.96,523.786 1319,523.786 1315.98,523.786C1313.55,523.786 1310.69,526.428 1310.35,527.633C1304.8,546.99 1295.49,559.557 1280.06,569.096C1267.28,577.227 1246.66,581.625 1220.74,583.388L1220.46,583.422C1220.05,583.491 1218.28,583.5 1217.07,581.262C1216.47,580.151 1216.52,579.477 1216.71,579.082C1216.85,578.796 1217.07,578.655 1217.18,578.6L1217.4,578.55C1260.72,573.277 1285.74,557.238 1293.9,530.767C1294.82,527.775 1292.28,523.786 1287.78,523.786C1279.15,523.786 1279.15,523.786 1279.15,523.786L1279.15,517.399L1316.71,517.399C1320.47,517.399 1323,514.669 1323,510.914C1323,507.318 1323,510.914 1323,507.318C1323,503.62 1320.41,500.848 1316.71,500.848C1279.15,500.848 1279.15,500.848 1279.15,500.848L1279.15,494.46L1316.71,494.46C1320.41,494.46 1323,492.133 1323,488.435C1323,484.95 1323,488.435 1323,484.95C1323,481.398 1320.27,479.361 1316.71,479.361L1279.15,479.361L1279.15,472.683L1322.26,472.683C1323.27,472.683 1324.2,472.131 1324.68,471.244C1326.29,468.276 1327.61,465.098 1328.69,461.651C1329.02,460.608 1328.7,459.469 1327.88,458.751C1327.06,458.033 1325.88,457.871 1324.89,458.339C1321.48,459.957 1319.03,461.174 1317.61,461.61L1317.48,461.649L1314,457.004C1314,457.004 1318.86,454.339 1321.1,453C1321.42,452.809 1327.9,448.685 1328.41,448.335C1339.42,440.85 1346.92,433.844 1354.37,425.5C1355.08,424.705 1355.81,422.726 1354.83,420.696C1353.85,418.666 1351.65,417.76 1350.58,417.76L1343.37,417.805C1344.84,415.7 1346.46,413.482 1347.49,411.417ZM756.34,423.048C756.341,423.846 755.7,439.043 755.661,440.023C755.332,448.342 754.691,456.631 753.686,464.389C751.603,480.482 748.115,494.113 742.835,505.521C735.377,521.636 725.303,533.659 716.67,542.349C707.268,551.813 681.857,570.094 663.171,576.358C659.707,577.519 656.197,578.843 653.796,578.724C652.767,578.672 651.941,578.356 651.41,577.648C651.056,577.029 651.169,576.413 651.624,575.789C652.687,574.332 655.618,572.83 658.85,571.128C677.256,561.435 698.906,544.994 707.764,534.509C716.307,524.396 725.705,509.768 730.876,490.384C735.492,473.082 736.74,457.615 737.393,449.092C737.972,441.54 735.442,439.242 730.277,439.65C715.299,440.836 706.873,442.024 699.985,442.851C691.109,444.034 676.676,447.567 665.766,447.869C654.511,448.456 648.618,446.391 644.206,441.096C641.837,438.283 640.51,435.702 640.141,433.526C639.776,431.372 640.349,429.614 641.796,428.436L641.875,428.369C643.051,427.334 644.64,427.129 646.33,427.33C648.869,427.631 651.637,428.85 653.582,429.561L653.681,429.6C657.799,431.362 662.217,432.83 669.253,434.003C676.645,435.186 681.66,434.891 694.934,433.416C708.209,431.941 719.756,430.106 729.81,428.989C735.187,428.392 738.025,425.852 738.138,419.845C738.269,412.916 738.317,412.839 738.049,408.279C737.757,400.083 737.167,390.348 735.987,383.269C734.809,376.196 733.335,372.068 728.921,368.236L728.849,368.175C725.783,365.694 723.578,361.659 723.229,358.55C723.078,357.205 723.28,356.034 723.916,355.216C724.837,354.065 726.583,353.546 728.735,353.499C731.965,353.428 736.108,354.42 739.864,355.851C745.72,358.194 750.734,361.141 753.648,365.223C757.13,369.866 757.483,374.743 756.685,376.949C756.65,377.046 756.62,377.145 756.596,377.245C756.031,379.61 755.751,383.324 755.751,385.628C755.456,389.463 755.161,397.427 756.051,407.516C756.302,411.293 756.335,416.682 756.34,423.048ZM416.024,562.448C427.635,560.749 436.415,558.2 447.744,553.385C462.187,547.438 468.701,544.039 483.145,534.127C502.97,519.966 520.529,503.539 528.459,489.945C536.389,476.068 526.76,465.022 518.547,461.624C510.617,458.225 506.369,457.942 501.271,457.942C496.173,457.942 494.95,458.93 494.666,460.629C494.383,462.612 496.021,464.025 498.275,466.599C501.581,470.376 503.363,472.576 503.775,477.358C504.117,481.332 502.223,486.207 500.396,489.968C495.648,499.747 491.075,508.354 475.782,522.232C463.887,533.277 452.558,540.924 437.548,548.287C427.919,553.102 422.538,555.084 414.041,556.784C410.643,557.35 406.961,558.2 406.961,560.182C406.961,562.165 410.359,563.014 416.024,562.448ZM1368,526.555L1369.38,526.935L1370.7,527.311L1371.95,527.683L1373.08,528.035C1377.74,529.513 1380.89,530.91 1382.55,532.226C1383.5,532.975 1383.97,533.698 1383.97,534.395C1383.97,534.83 1383.76,535.24 1383.34,535.607C1382.49,536.338 1380.75,536.893 1378.08,537.185C1377.23,537.278 1376.47,537.762 1376.03,538.495C1374.92,540.313 1374.06,541.604 1372.17,543.876C1371.46,544.722 1370.36,546.043 1370.99,547.646C1371.56,549.105 1373.16,549.44 1374.27,549.364C1378.08,549.099 1382.3,548.899 1387.32,548.051C1388.43,547.863 1389.61,547.421 1390.09,546.107C1390.57,544.793 1389.95,543.502 1389.21,542.797C1388.42,542.16 1388.18,541.992 1387.29,541.367L1386.88,541.073L1389.78,537.008C1398.14,540.667 1404,544.325 1407.34,547.984C1409.57,550.423 1410.69,552.862 1410.69,555.301C1410.69,557.624 1410.11,559.366 1408.98,560.527C1407.86,561.689 1406.19,562.269 1404.01,562.269C1401.39,562.269 1399.83,560.397 1398.87,556.853C1398.65,556.064 1398.69,556.066 1398.36,555.263C1397.75,553.762 1395.9,552.069 1392.74,553.011C1384.13,555.576 1378.65,557.724 1367.49,560.719C1364.73,561.46 1359.46,562.677 1356.74,562.111C1355.04,561.758 1352.74,558.817 1352.23,558.158C1350.7,556.219 1349.48,554.398 1348.21,551.047C1350.84,551.066 1355.86,550.887 1357.74,550.633C1358.68,550.506 1360.2,549.853 1360.97,548.434C1363.61,543.61 1365.05,538.217 1366.65,532.327L1366.65,532.314C1367.14,530.514 1367.57,528.67 1367.96,526.785L1368,526.555ZM1471.25,553.447C1471.25,553.449 1471.25,553.45 1471.25,553.449C1471.25,553.448 1471.25,553.446 1471.25,553.442L1471.25,553.447ZM357.186,478.125C356.387,478.871 352.491,482.49 350.743,483.949C347.806,486.4 344.935,488.881 342.246,491.272C332.087,500.235 313.861,512.486 299.817,521.45C285.475,530.414 277.408,534.298 269.041,538.481C260.974,542.664 253.205,545.951 243.345,548.939C239.162,550.134 237.07,545.054 241.552,543.56C247.528,540.871 252.01,538.78 260.675,533.7C276.81,524.736 288.463,516.669 306.092,502.924C323.422,488.881 339.856,474.838 353.301,461.392C366.747,447.946 375.113,438.086 380.492,431.513C385.87,424.939 385.571,421.055 383.778,417.768C381.687,414.481 381.388,410 383.778,408.804C390.053,404.92 401.407,411.792 405.291,416.573C408.877,421.055 410.072,427.031 407.981,430.915C405.59,435.397 401.407,438.684 396.328,443.166C390.949,447.648 381.089,455.715 371.229,464.978C366.747,469.161 361.972,473.648 357.186,478.125ZM1423.54,534.601L1423.53,534.622L1423.53,534.623L1423.51,534.679L1423.54,534.601ZM1267.78,471.688L1268.52,529.565C1268.54,529.557 1265.62,531.139 1261.36,531.244C1256.35,531.367 1254.66,529.865 1254.29,529.747L1253.48,466.098L1255.16,466.646L1256.35,467.045L1257.17,467.326L1258.2,467.688L1258.6,467.829C1261.27,468.788 1264.17,470.08 1267.78,471.688ZM600.123,480.235C591.329,472.948 584.293,467.923 576.252,464.154C571.981,462.144 568.714,461.138 566.955,462.897C565.196,464.656 567.709,466.918 571.478,469.933C579.77,476.969 583.93,482.838 589.458,492.387C594.734,501.935 598.046,506.788 601.313,515.583C604.328,523.623 612.435,529.485 619.471,526.218C626.507,522.951 626.248,512.766 620.217,503.218C614.187,493.418 608.918,487.773 600.123,480.235ZM864.066,489.032C856.772,485.883 850.03,483.719 845.619,483.013C842.349,482.491 835.953,481.998 836.049,484.479C836.113,486.134 838.895,487.288 841.57,490.553C845.382,495.206 847.498,499.067 853.161,506.725C857.343,512.382 859.607,513.806 863.197,515.748C867.751,518.212 873.405,518.595 878.027,513.29C882.422,508.245 880.449,500.644 876.358,497.001C871.86,492.996 868.85,491.096 864.066,489.032ZM1341.86,500.848C1338.11,500.848 1336.35,503.574 1336.35,507.318C1336.35,510.914 1336.35,507.318 1336.35,510.914C1336.35,514.69 1338.08,517.399 1341.86,517.399C1385.29,517.399 1341.86,517.399 1385.29,517.399C1388.85,517.399 1391.14,514.468 1391.14,510.914C1391.14,507.318 1391.14,510.914 1391.14,507.318C1391.14,503.496 1389.11,500.848 1385.29,500.848C1341.86,500.848 1385.29,500.848 1341.86,500.848ZM1341.86,479.361C1338.63,479.361 1336.35,481.724 1336.35,484.95C1336.35,488.435 1336.35,484.95 1336.35,488.435C1336.35,491.646 1338.65,494.46 1341.86,494.46L1385.29,494.46C1389.13,494.46 1391.14,492.269 1391.14,488.435L1391.14,484.95C1391.14,481.48 1388.76,479.361 1385.29,479.361L1341.86,479.361ZM893.744,437.728C886.169,434.19 879.202,431.57 874.592,430.648C871.175,429.965 864.469,429.187 864.469,431.8C864.469,433.542 867.347,434.869 870.027,438.411C873.846,443.459 877.208,447.539 882.763,455.921C887.661,463.312 890.083,464.763 892.585,466.05C896.405,468.015 903.158,470.375 908.279,464.595C913.607,458.581 911.364,451.486 907.408,447.293C904.006,443.687 898.003,439.716 893.744,437.728ZM1332.07,417.805L1298.16,417.805C1296.64,417.805 1295.41,419.036 1295.41,420.555L1295.41,421.349C1295.41,422.682 1296.37,423.823 1297.68,424.057C1297.85,424.086 1298.02,424.121 1298.19,424.163C1298.28,424.183 1298.36,424.199 1298.44,424.212C1307.53,425.519 1314.24,427.545 1318.68,430.254C1323.14,432.976 1325.32,436.388 1325.32,440.453C1325.32,442.183 1325.03,443.63 1324.43,444.789C1324.32,444.995 1323.78,446.07 1322.41,446.932C1321.01,447.811 1319.56,447.886 1319.35,447.911C1318.86,447.972 1318.33,448.002 1317.77,448.002C1315.46,448.002 1313.39,446.143 1311.41,442.831C1309.6,439.808 1305.62,435.532 1302.28,433.82C1301.4,433.372 1299.64,433.03 1297.74,434.13C1295.84,435.231 1295.41,437.029 1295.41,438.011L1295.41,464.843C1295.41,464.843 1281.77,464.843 1281.77,464.843L1281.77,444.903C1281.77,443.759 1280.64,441.637 1278.86,440.965C1277.08,440.292 1274.65,440.657 1273.86,441.482C1265.07,450.625 1255.52,458.706 1241.41,466.876L1238.21,461.94C1253.2,451.498 1264.25,438.986 1273.04,425.362C1273.57,424.531 1274.22,422.389 1273.26,420.562C1272.3,418.734 1270.56,417.805 1269.57,417.805L1242.57,417.805C1242.57,417.805 1240.25,411.417 1240.25,411.417L1276.84,411.417C1280.12,411.417 1281.77,408.497 1281.77,406.534L1281.77,391.963C1283.84,392.085 1285.76,392.224 1287.54,392.381L1287.54,392.382C1294.65,393.012 1299.41,393.942 1301.87,395.272C1303.18,395.984 1303.83,396.812 1303.83,397.77C1303.83,398.293 1303.57,398.842 1303.06,399.409C1302.05,400.52 1300.04,401.701 1297.11,402.913C1296.08,403.338 1295.41,404.341 1295.41,405.454L1295.41,407.781C1295.41,409.6 1297.19,411.417 1299.01,411.417L1312.65,411.417C1313.5,411.417 1314.3,411.027 1314.82,410.359L1323.29,399.512L1324.18,400.23L1325.04,400.946L1325.87,401.66L1326.67,402.371C1329.88,405.26 1331.48,407.214 1333,408.905C1333.89,409.898 1335.78,411.894 1335.65,412.773C1335.52,413.66 1333.66,416.118 1332.07,417.805ZM768.14,424.6C773.221,423.889 776.973,423.246 782.655,422.328C790.604,421.045 796.401,418.962 803.476,419.256C810.848,419.551 817.333,422.202 821.464,425.149C821.469,425.153 821.513,425.186 821.513,425.186C825.309,428.106 827.374,432.531 827.079,435.186C827.1,434.993 827.018,435.369 827.079,435.186C826.725,436.248 825.71,436.885 824.054,437.248C821.575,437.792 817.66,437.723 812.371,437.547L812.282,437.545C803.434,437.54 790.777,436.035 776.342,436.366C772.399,436.456 772.118,436.459 767.839,436.746C767.985,432.855 768.102,428.726 768.14,424.6ZM1031.02,415.469C1033.97,416.846 1034.96,420.493 1033.47,424.751C1031.68,429.894 1027.53,432.018 1024.63,430.858C1020.2,429.08 1020.36,424.426 1022.03,420.423C1024.06,415.548 1027.87,413.997 1031.02,415.469ZM1246.26,382.166C1246.26,382.166 1246.06,382.168 1305.38,381.75C1310.25,381.715 1313.05,379.917 1313.02,375.046L1313,349.865L1313.22,349.865C1325.09,350.077 1332.88,351.133 1336.49,353.131C1338.05,353.993 1338.84,355.029 1338.84,356.249C1338.84,356.858 1338.34,357.606 1337.58,358.415C1335.81,360.303 1332.65,362.529 1331.24,364.135C1330.08,365.459 1329.3,366.655 1328.78,367.582C1328.12,368.768 1327.8,370.859 1327.8,370.859C1327.8,370.859 1327.82,370.859 1327.82,374.394C1327.82,380.071 1330.73,381.531 1336.41,381.531C1396.35,381.531 1396.35,381.108 1396.35,381.108C1396.52,381.107 1396.68,381.091 1396.85,381.059C1397.29,380.974 1399.06,380.587 1400.9,379.164C1403.74,376.981 1414.58,364.141 1414.83,363.846L1414.83,363.846C1421.26,369.608 1429.98,378.693 1432.38,382.597C1432.68,383.077 1432.51,383.689 1432.13,384.311C1431.31,385.673 1429.47,387.078 1429.22,387.265L1246.3,388.554L1246.26,382.166Z" style="fill-rule:nonzero;"/>
    </g>
</svg>
